<svg width="64" height="64" viewBox="0 0 64 64" fill="none" xmlns="http://www.w3.org/2000/svg">
<path d="M42.7255 33.0301C41.15 32.5537 39.5824 31.8849 38.2643 30.8065C36.9451 29.7252 35.8972 28.2067 35.6055 26.4554C35.5621 26.1933 35.5362 25.9226 35.5362 25.6491C35.5362 25.1937 35.6082 24.7278 35.7982 24.2899C35.9534 23.9335 36.1887 23.6116 36.4864 23.3615C36.7836 23.1122 37.1476 22.9341 37.5518 22.8892C37.6186 22.8818 37.6852 22.8782 37.7514 22.8782C38.1272 22.8784 38.4849 22.9929 38.7967 23.1781C39.1088 23.3639 39.3779 23.6209 39.5817 23.9234L39.5815 23.9233C39.9954 24.5405 40.1358 25.2749 40.1364 25.9702L40.1353 26.0755V26.0757C40.1338 26.146 40.1318 26.2122 40.1318 26.2727C40.1316 26.3645 40.1371 26.4428 40.1489 26.4983C40.1609 26.5546 40.1758 26.5845 40.1925 26.6063C40.2493 26.6821 40.3555 26.7259 40.4499 26.7515C40.8416 26.8644 41.4845 26.9895 42.0386 27.0855C42.5943 27.1821 43.0672 27.2518 43.145 27.2632C43.3541 27.2938 43.4994 27.4923 43.4695 27.7065C43.4397 27.9208 43.246 28.0696 43.0369 28.039C42.9552 28.0271 42.4769 27.9565 41.9108 27.8582C41.3432 27.7593 40.6937 27.635 40.2432 27.5061L40.2428 27.5059C40.1237 27.4699 39.8245 27.3875 39.5944 27.0949L39.5941 27.0944C39.4871 26.9568 39.43 26.8024 39.401 26.6622C39.3718 26.521 39.3672 26.3902 39.367 26.2727C39.367 26.1952 39.3693 26.1234 39.3706 26.0591V26.0592L39.3716 25.9702C39.3722 25.3817 39.2477 24.8053 38.9519 24.3682L38.9518 24.3681C38.8134 24.1618 38.6236 23.9809 38.413 23.8561C38.2021 23.7307 37.9733 23.6617 37.7514 23.6619C37.7122 23.6619 37.673 23.6641 37.634 23.6684C37.3989 23.6943 37.1709 23.8004 36.9707 23.9681C36.7709 24.1351 36.6033 24.363 36.497 24.6085C36.3602 24.9231 36.3009 25.2778 36.301 25.6491C36.301 25.8716 36.3223 26.0992 36.3596 26.3243C36.6079 27.8356 37.5378 29.2094 38.7417 30.1942C39.9467 31.1814 41.4199 31.8191 42.9418 32.2784C43.6398 32.4896 44.4051 32.6423 45.1163 32.6418C45.5576 32.642 45.9767 32.5836 46.3491 32.4521C46.7221 32.3201 47.0482 32.1186 47.3232 31.8208C47.7847 31.3217 48.0001 30.6072 48 29.8566C48 29.5444 47.9626 29.2284 47.8927 28.9265C47.8284 28.6484 47.7617 28.3828 47.6561 28.0857L47.6562 28.086C47.4644 27.5505 47.1796 26.9264 46.4859 25.9696C45.9395 25.2182 45.56 24.8366 45.2344 24.4814C44.9093 24.1295 44.6266 23.7776 44.3902 23.1982L44.3901 23.1981C44.1433 22.5994 44.0569 22.0682 44.0207 21.7387C44.0148 21.6849 44.0198 21.6325 44.0339 21.5836C43.8902 20.6753 43.7358 19.7061 43.5701 18.6692C43.6128 18.6832 43.6578 18.6923 43.7052 18.6898C44.4258 18.6517 45.1429 18.5524 45.8474 18.3929C46.0537 18.3462 46.1839 18.1371 46.1383 17.9258C46.0928 17.7144 45.8887 17.581 45.6824 17.6277C45.0193 17.7778 44.3442 17.8713 43.6658 17.9071C43.5874 17.9112 43.5201 17.9449 43.4615 17.9897C43.422 17.7423 43.3818 17.4913 43.3411 17.2365C43.39 17.2435 43.4411 17.2411 43.4918 17.2273C44.1794 17.0414 44.8665 16.8554 45.554 16.6696C45.7582 16.6144 45.8801 16.4 45.8262 16.1908C45.7724 15.9815 45.5632 15.8566 45.3589 15.9118C44.6713 16.0976 43.9841 16.2836 43.2966 16.4696C43.2695 16.4769 43.2482 16.4935 43.2242 16.5061C43.132 15.9297 43.0371 15.3369 42.939 14.7229C42.7956 13.8267 41.8615 7.98047 40.8039 8.00573C40.5589 8.01166 40.2336 8.48619 39.5838 9.43561C39.1006 10.1417 38.745 10.7756 38.4967 11.2587C36.6365 11.2491 34.7763 11.2396 32.9161 11.2302C32.4874 10.7832 31.8327 10.0718 31.0835 9.13176C30.4571 8.34555 30.2205 7.97129 29.9195 8.00171C29.2846 8.066 28.9834 9.86211 28.803 10.8852C28.803 10.8854 28.7161 11.3782 27.5879 16.6676C27.5347 16.6142 27.4708 16.5711 27.3919 16.5569C26.6934 16.4309 26.0083 16.227 25.3529 15.9498C25.1577 15.8672 24.9341 15.9624 24.8535 16.1624C24.7729 16.3625 24.8658 16.5916 25.061 16.6742C25.768 16.9732 26.5062 17.1929 27.2593 17.3287C27.327 17.3409 27.3912 17.3285 27.4516 17.3064C27.4155 17.4751 27.3787 17.6471 27.3408 17.8247C27.3 17.8118 27.2576 17.802 27.2124 17.804C27.0992 17.809 26.9859 17.8115 26.8725 17.8115C26.3388 17.8115 25.8048 17.7563 25.2818 17.6468C25.0749 17.6035 24.8729 17.7403 24.8306 17.9524C24.7884 18.1644 24.9218 18.3714 25.1288 18.4147C25.7023 18.5347 26.2873 18.5952 26.8725 18.5952C26.9733 18.5952 27.0741 18.5922 27.1749 18.5886C26.9673 19.5301 26.7307 20.4442 26.4786 21.3164C26.527 21.4123 26.5399 21.5263 26.4992 21.6351C25.6453 23.917 24.9096 25.1535 24.3694 25.8731V25.873C24.2782 25.9946 24.0977 26.231 23.8832 26.5835C23.6695 26.935 23.4256 27.3979 23.2195 27.9559V27.956C23.114 28.2413 23.0372 28.5175 22.966 28.8251V28.825C22.8961 29.1269 22.8587 29.4428 22.8588 29.7549C22.8587 30.5057 23.0741 31.2204 23.5356 31.7195C23.8105 32.0174 24.1366 32.2189 24.5095 32.3509C24.8818 32.4823 25.3009 32.5407 25.7421 32.5406C26.4534 32.5411 27.2187 32.3883 27.9168 32.1771C29.4389 31.7178 30.9118 31.0802 32.1168 30.0928C33.3207 29.1082 34.2507 27.7344 34.4993 26.2229V26.223C34.5366 25.998 34.558 25.7703 34.5579 25.5477C34.558 25.1763 34.4987 24.8217 34.3619 24.5071C34.2557 24.2617 34.088 24.0338 33.8882 23.8669C33.6879 23.6991 33.4599 23.593 33.2249 23.5672C33.1859 23.5628 33.1468 23.5607 33.1075 23.5607C32.8856 23.5605 32.6568 23.6295 32.4458 23.7549C32.2351 23.8797 32.0452 24.0606 31.9066 24.267C31.6109 24.7039 31.4867 25.2801 31.4874 25.8687L31.4883 25.9579V25.9581C31.4895 26.022 31.4918 26.0933 31.4918 26.1701C31.4916 26.2877 31.4871 26.4186 31.4579 26.5601C31.4289 26.7006 31.3717 26.8553 31.2644 26.9932L31.2643 26.9934C31.0343 27.2863 30.735 27.3687 30.6156 27.4048H30.6154C30.1649 27.5337 29.5154 27.658 28.9478 27.7569C28.3818 27.8552 27.9035 27.9256 27.8219 27.9376C27.6128 27.9682 27.4191 27.8193 27.3892 27.6051C27.3593 27.3908 27.5046 27.1924 27.7137 27.1617C27.7916 27.1504 28.2643 27.0807 28.8201 26.9842C29.3742 26.8882 30.0171 26.7631 30.4088 26.6502C30.5033 26.6246 30.6095 26.5808 30.666 26.5052C30.6829 26.4831 30.6978 26.4531 30.7099 26.3965C30.7218 26.3407 30.7272 26.2622 30.727 26.1701C30.727 26.1099 30.725 26.0441 30.7236 25.9742V25.9744C30.7229 25.9393 30.7225 25.904 30.7225 25.8687C30.7231 25.1736 30.8632 24.4393 31.277 23.8221C31.4809 23.5196 31.75 23.2626 32.0622 23.0769C32.374 22.8916 32.7317 22.7772 33.1075 22.777C33.1737 22.777 33.2403 22.7806 33.3071 22.788C33.7112 22.8329 34.0751 23.0109 34.3724 23.2602C34.6701 23.5101 34.9055 23.832 35.0607 24.1885C35.2507 24.6263 35.3227 25.0923 35.3228 25.5477C35.3227 25.8213 35.2968 26.0919 35.2534 26.3541V26.3542C34.9613 28.1055 33.9134 29.6239 32.5943 30.705C31.2761 31.7836 29.7088 32.4525 28.133 32.9289C27.3864 33.1538 26.5583 33.3238 25.7421 33.3243C25.2362 33.3242 24.7336 33.2585 24.2606 33.0919C23.7883 32.9259 23.3456 32.6555 22.9794 32.2575C22.9776 32.2555 22.9761 32.2532 22.9742 32.2511C21.2993 33.5101 19.9576 34.6772 18.9608 35.603L18.9607 35.6031C18.1388 36.3658 17.5242 36.9904 17.0898 37.5765C16.6551 38.164 16.3972 38.7048 16.2607 39.3452C16.197 39.647 16.1744 39.9097 16.1744 40.1329C16.1753 40.6172 16.2778 40.9103 16.3188 41.0229C16.6769 42.0086 17.6229 42.5071 17.8236 42.6047C18.4176 42.9091 19.3019 43.0871 20.3311 43.2829H20.3316C21.5816 43.5232 22.3324 43.6583 22.8768 43.768C23.4199 43.8773 23.7664 43.9641 24.1724 44.1014H24.1725C24.408 44.181 24.7687 44.3122 25.2008 44.5127C25.3449 44.5795 25.4337 44.7297 25.4249 44.8915C25.424 44.9077 25.4226 44.937 25.4226 44.9794C25.4223 45.1018 25.4355 45.328 25.507 45.568C25.5788 45.8092 25.7042 46.0587 25.9267 46.2622C26.2048 46.5161 26.5531 46.6256 26.9215 46.6266C27.3035 46.6279 27.6968 46.4994 27.9728 46.3117C28.2919 46.0958 28.4801 45.8019 28.5983 45.4697C28.7154 45.1392 28.7514 44.776 28.751 44.4792C28.751 44.1786 28.7158 43.9494 28.7051 43.8854C28.6545 43.5819 28.5637 43.3386 28.431 43.0854C28.2986 42.8329 28.1206 42.5724 27.9065 42.2616C27.2205 41.2638 26.456 40.7532 26.3106 40.6584L26.3105 40.6583C25.7102 40.2655 25.1453 40.0688 24.754 39.965C24.5495 39.9108 24.4266 39.697 24.4796 39.4875C24.5325 39.278 24.7411 39.1521 24.9456 39.2063C25.3912 39.3245 26.0359 39.5487 26.7221 39.9977H26.722L26.7222 39.9978C26.7221 39.9977 26.7221 39.9977 26.7221 39.9977C26.9081 40.1196 27.7639 40.6934 28.5317 41.8102C28.7449 42.1206 28.9409 42.4034 29.1043 42.7134C29.2675 43.0227 29.3947 43.3608 29.4592 43.7545C29.4739 43.8437 29.5158 44.1176 29.5158 44.4792C29.5158 44.4913 29.5147 44.5052 29.5146 44.5175C30.1377 44.7517 30.7413 44.9331 31.2979 45.0801C30.656 47.8565 28.6529 50.1569 25.575 50.8528C23.1268 51.4066 20.6926 50.2053 18.8952 48.4301C18.2646 47.8075 17.412 46.258 16.4253 46.9051C15.6491 47.4141 16.1144 48.5193 16.4195 49.2226C18.627 54.3134 24.7902 55.269 28.8047 52.6017C31.5734 50.7622 33.203 48.4254 33.83 45.6544C34.586 45.8059 35.3866 45.9346 36.2117 45.9672C36.8083 48.7294 36.7456 50.8461 36.4909 52.4203C36.3381 53.3624 35.9176 55.3474 36.9398 56.3535C37.8779 57.2765 39.6063 56.9577 39.9136 56.9011C40.5896 56.7763 41.5008 56.5563 41.9224 55.7695C42.3075 55.0512 42.1073 54.0076 41.3974 53.6303C41.0937 53.4688 40.7005 53.4084 40.5313 53.1038C40.3823 52.8351 40.4555 52.5248 40.4917 52.3786C42.2727 45.2202 43.1668 42.8327 43.1668 42.8323C43.3722 42.349 43.5735 41.8396 43.7662 41.3046C43.878 40.9945 43.9816 40.6888 44.0793 40.387C44.4787 39.4329 44.7727 38.4871 45.0199 37.6673C45.426 36.3202 45.6261 35.2046 45.5687 33.4045C45.4186 33.4173 45.2678 33.4255 45.1164 33.4255C44.3002 33.4251 43.4721 33.2552 42.7255 33.0301ZM37.5465 15.5817C37.6866 15.4197 37.9283 15.4048 38.0864 15.5484C38.4868 15.913 39.0133 16.1422 39.547 16.1842H39.5472C39.5983 16.1883 39.6484 16.1905 39.6968 16.1905C39.843 16.1907 39.9707 16.1693 40.0722 16.1245C40.1352 16.0973 40.1952 16.0544 40.2369 16.0082C40.2792 15.9616 40.3026 15.9149 40.3116 15.8734C40.3578 15.6622 40.5623 15.5294 40.7684 15.5768C40.9745 15.6241 41.1041 15.8337 41.0579 16.0448C41.0146 16.2423 40.9168 16.4104 40.7961 16.5429C40.6747 16.6758 40.5296 16.7763 40.3726 16.8453C40.1439 16.945 39.9114 16.9741 39.6968 16.9743C39.6253 16.9743 39.5554 16.971 39.4875 16.9655H39.4876C38.7837 16.9088 38.1077 16.6145 37.5789 16.1349C37.4209 15.9913 37.4064 15.7436 37.5465 15.5817ZM33.3222 16.1997C32.9274 16.7538 32.3085 17.1117 31.6416 17.1719C31.5778 17.1775 31.5141 17.1803 31.4504 17.1803C30.8485 17.1791 30.2593 16.9386 29.8243 16.5065C29.673 16.3555 29.6697 16.1075 29.817 15.9524C29.9643 15.7973 30.2064 15.7939 30.3578 15.9448C30.6412 16.2292 31.0512 16.3977 31.4504 16.3965C31.4926 16.3965 31.5346 16.3947 31.5764 16.391C32.0138 16.3544 32.4469 16.1039 32.7034 15.7392C32.8275 15.5641 33.0667 15.5252 33.2376 15.6524C33.4084 15.7796 33.4463 16.0246 33.3222 16.1997ZM35.3086 19.0763C35.1318 19.1885 34.9334 19.2414 34.7345 19.2419C34.462 19.2422 34.1665 19.137 33.9655 18.8793C33.8344 18.7096 33.8624 18.4632 34.0281 18.3289C34.1937 18.1946 34.4342 18.2233 34.5653 18.393C34.5874 18.4241 34.6463 18.4579 34.7345 18.4582C34.7959 18.4587 34.861 18.4393 34.9042 18.4111C34.9697 18.3693 35.0286 18.3036 35.0759 18.2136C35.1229 18.1245 35.1554 18.013 35.1669 17.902C35.1875 17.7068 35.346 17.5573 35.5375 17.5524C35.7291 17.5475 35.8947 17.6887 35.9248 17.8826C35.9421 17.9959 35.9789 18.1076 36.0288 18.1969C36.079 18.2869 36.1396 18.3528 36.2066 18.3951L36.2068 18.3952C36.2523 18.4248 36.3202 18.4448 36.383 18.4442C36.47 18.4439 36.5281 18.4119 36.5515 18.3811C36.687 18.2151 36.9282 18.1931 37.0902 18.332C37.2522 18.4708 37.2737 18.718 37.1382 18.884C36.9365 19.1289 36.6486 19.2283 36.383 19.228C36.1822 19.2274 35.9827 19.1739 35.8048 19.062L35.8046 19.0619C35.8047 19.0619 35.8048 19.062 35.8048 19.062C35.7127 19.0037 35.6333 18.9332 35.5627 18.8569C35.4901 18.9392 35.406 19.0141 35.3086 19.0763Z" fill="#C33409"/>
</svg>
