<svg width="64" height="64" viewBox="0 0 64 64" fill="none" xmlns="http://www.w3.org/2000/svg">
<path d="M45.768 19.2815C40.7041 12.9512 33.1675 12.0616 29.4803 12.0414C26.5886 11.8104 23.6231 12.5511 21.1886 14.1397C18.1851 16.0997 16.0631 19.26 14.9791 22.6908C13.8952 26.1214 13.7952 29.8106 14.271 33.3782C14.6494 36.2153 15.4287 39.0843 17.1214 41.3754C17.1042 42.8479 17.2592 44.3223 17.604 45.7534C17.8194 46.648 18.2245 47.6506 19.1029 47.9099C19.6972 48.0855 20.3514 47.8461 20.8258 47.4457C21.3004 47.0453 21.6298 46.5023 21.9507 45.9694L22.5526 44.9702C23.4096 45.1416 24.2902 45.1635 25.1601 44.9929C25.5223 44.9218 25.8665 44.85 25.8665 44.85C26.6616 44.6225 27.2043 44.2313 27.4503 44.0472C27.975 43.655 28.383 43.2839 28.7307 42.9463C28.4304 42.3705 28.1304 41.6694 27.9052 40.8447C27.6253 39.8194 27.532 38.8664 27.532 38.0448C27.532 37.4846 27.5759 36.9882 27.6331 36.5679C26.9964 36.6162 26.336 36.6905 25.6685 36.6916C25.0146 36.6915 24.3491 36.6159 23.707 36.3458C23.5076 36.2618 23.4136 36.0313 23.4972 35.8308C23.5807 35.6304 23.81 35.5359 24.0095 35.6199C24.5192 35.8347 25.0733 35.9047 25.6685 35.9046C26.5622 35.9063 27.5339 35.7419 28.5186 35.7402C29.1494 35.7403 29.7912 35.8104 30.4136 36.0567C31.2975 36.4104 31.964 37.0364 32.6266 37.5341C33.2453 38.0037 33.9033 38.3967 34.5961 38.5305H34.5963C34.7553 38.5616 34.9195 38.5777 35.083 38.5777C35.6216 38.5781 36.1369 38.4026 36.4755 38.0573C36.7152 37.8178 36.8618 37.4445 36.86 37.0978C36.8595 36.8298 36.779 36.589 36.6211 36.4104C36.5157 36.2914 36.3869 36.2 36.2275 36.1203C36.0687 36.0409 35.8807 35.9761 35.6749 35.9142C35.2642 35.7879 34.7818 35.6826 34.3325 35.4035C33.7608 35.0426 33.4278 34.5043 33.1523 33.9843C32.8776 33.4607 32.6498 32.9398 32.3476 32.5462C32.0535 32.1607 31.6895 31.8704 31.2639 31.6342C30.8388 31.3984 30.3528 31.22 29.8331 31.0672C28.7936 30.7596 27.6259 30.5623 26.5571 30.1387C25.8456 29.8557 25.1716 29.4644 24.6359 28.8552C24.4927 28.6923 24.5079 28.4437 24.6699 28.2997C24.8319 28.1558 25.0793 28.1711 25.2224 28.334C25.8611 29.0633 26.7964 29.4454 27.8598 29.741C28.9196 30.0384 30.0845 30.2414 31.1303 30.694C31.8262 30.996 32.4754 31.4193 32.9691 32.0676C33.3493 32.5692 33.5863 33.1309 33.8438 33.6154C34.1005 34.1036 34.3671 34.499 34.7473 34.7361C34.9693 34.8765 35.2558 34.9726 35.5739 35.065C35.8914 35.1588 36.2384 35.2482 36.5755 35.4153C36.7995 35.5268 37.0202 35.6768 37.2065 35.8879L37.2066 35.888C37.511 36.233 37.6433 36.6715 37.6429 37.0978C37.6411 37.6525 37.4288 38.2062 37.0311 38.6118C36.5055 39.1417 35.7827 39.3643 35.083 39.3647C34.8686 39.3647 34.6551 39.3437 34.4468 39.303C34.4469 39.303 34.4469 39.303 34.447 39.303H34.4468C33.5678 39.1301 32.816 38.6616 32.1557 38.1628C31.4547 37.6284 30.8314 37.0646 30.1266 36.7889C29.6301 36.5921 29.0928 36.5271 28.5186 36.5272C28.4895 36.5272 28.4589 36.5301 28.4296 36.5304C28.3665 36.9493 28.3149 37.4589 28.3149 38.0447C28.3149 38.8067 28.4013 39.6883 28.6601 40.6364C28.9319 41.6319 29.3222 42.4372 29.6771 43.0387C29.693 43.0658 29.6978 43.0953 29.7068 43.1241C30.2231 43.6518 30.8346 44.2062 31.1195 45.2119C31.2982 45.8437 31.1163 45.8345 31.2975 48.3115C31.3324 48.7876 31.3351 48.9686 31.2239 49.188C30.823 49.9804 29.573 49.5892 28.8075 50.0338C28.046 50.4761 28.055 51.6969 28.6697 52.3295C29.2844 52.9616 30.2632 53.0896 31.1312 52.9478C33.9026 52.4947 35.7429 49.8851 37.1485 47.4419C38.6111 44.8999 39.9632 42.2753 40.868 39.4828C41.4231 37.7701 41.8031 36.0009 42.0076 34.2113C42.1945 33.1111 42.3842 31.4349 42.3803 29.37C42.3742 26.0818 41.862 22.6887 40.4602 19.7545C43.2259 21.5612 44.2879 24.2321 45.153 26.42C45.6396 27.6504 46.757 30.6268 46.2474 34.3762C46.0521 35.8149 45.8105 37.5922 44.6484 39.4663C43.4128 41.4587 41.6727 42.6976 42.1101 43.7874C42.2829 44.219 42.7099 44.4096 42.8127 44.4515C44.2844 45.0536 46.5937 42.7341 47.58 41.4756C48.0185 40.9165 49.8301 38.481 49.9788 33.4385C50.043 31.2557 50.2315 24.8608 45.768 19.2815ZM24.9447 39.5003L24.9449 39.5004C25.2046 39.6455 25.4182 39.8569 25.5738 40.1038C25.7283 40.3509 25.8273 40.6372 25.8281 40.9414C25.8287 41.167 25.7693 41.4035 25.6354 41.6117C25.5184 41.7945 25.2762 41.8473 25.0944 41.7297C24.9126 41.612 24.8601 41.3686 24.9771 41.1858C25.0235 41.1125 25.0446 41.0354 25.0452 40.9414C25.046 40.8167 25 40.6634 24.9117 40.5238C24.8246 40.3841 24.6977 40.2617 24.5661 40.1892C24.2635 40.0196 23.877 39.969 23.4435 39.97C23.2903 39.97 23.1324 39.9758 22.9727 39.9824C22.7567 39.9913 22.5744 39.8225 22.5655 39.6054C22.5566 39.3883 22.7245 39.205 22.9405 39.1961C23.1023 39.1894 23.2709 39.183 23.4435 39.183C23.9274 39.1839 24.4548 39.23 24.9447 39.5003Z" fill="#6C9EFC"/>
</svg>
