<svg width="64" height="64" viewBox="0 0 64 64" fill="none" xmlns="http://www.w3.org/2000/svg">
<path d="M39.4645 27.3102C38.7731 26.7603 38.0751 26.4156 37.1217 26.3327C37.0175 26.3239 36.915 26.3198 36.8144 26.3198C36.0165 26.3193 35.3279 26.5801 34.8627 26.8094C34.6841 26.8973 34.4668 26.8261 34.3775 26.6505C34.2881 26.4748 34.3605 26.2612 34.5391 26.1733C35.0613 25.9168 35.8559 25.6091 36.8144 25.6086C36.935 25.6086 37.0582 25.6135 37.1835 25.6241C38.2926 25.7151 39.1606 26.1471 39.9209 26.7584C40.6839 27.3699 41.3583 28.153 42.1558 29.002C43.604 30.5458 45.6074 31.3823 47.6285 31.3822C48.8954 31.382 50.168 31.0545 51.3212 30.3655C51.6329 30.1795 52.0781 29.8772 52.5034 29.5147C52.9292 29.153 53.3347 28.7273 53.5752 28.3149C53.7368 28.0399 53.8222 27.7771 53.8214 27.5467C53.8207 27.3876 53.7849 27.2405 53.6963 27.0857V27.0856C53.6213 26.9564 53.5486 26.8897 53.4833 26.8506C53.4175 26.8122 53.3524 26.7955 53.2662 26.7948C53.1516 26.794 53.0005 26.8331 52.8414 26.9082C52.6823 26.9825 52.5172 27.0898 52.3703 27.2039L52.3702 27.204C51.7302 27.6982 51.1201 28.2071 50.268 28.5249C49.5774 28.7816 48.8496 28.9097 48.1237 28.9097C47.1269 28.9097 46.1326 28.6682 45.2427 28.1851C44.4135 27.7346 43.7198 27.1395 43.0671 26.5268C42.4146 25.9134 41.8014 25.2813 41.1427 24.7414C39.6797 23.5411 37.8991 22.9854 35.977 22.7661C35.6694 22.7311 35.3397 22.7071 35.0087 22.7071C34.4811 22.7067 33.9512 22.7692 33.5033 22.9333C33.0538 23.0988 32.6912 23.3533 32.4387 23.7579C32.3346 23.9256 32.1121 23.9785 31.9416 23.8762C31.7711 23.7739 31.7173 23.555 31.8213 23.3874C32.1684 22.8261 32.6896 22.47 33.2517 22.2665C33.8155 22.0614 34.4251 21.9963 35.0086 21.9959C35.375 21.9959 35.7315 22.0222 36.0602 22.0596C38.0667 22.2876 40.0015 22.8787 41.6061 24.1952C41.731 24.2978 41.8509 24.4045 41.9714 24.5108C42.2111 24.1819 42.4813 23.8779 42.8033 23.6164C44.5656 22.1859 47.3931 22.3616 48.8726 20.6493C49.3483 20.099 49.4133 19.8733 49.955 19.4787C51.4517 18.3889 52.8415 18.9708 53.6061 17.9866C53.9737 17.513 54.138 16.7525 53.8614 16.228C53.2201 15.0125 50.3834 15.3987 49.2218 15.5567C48.5671 15.646 47.064 15.8359 45.3949 16.6672C44.6945 17.0159 44.0267 17.4404 43.2805 17.6801C42.411 17.9591 41.4807 17.9728 40.5667 18.0074C37.8046 18.1116 34.9866 18.4459 32.5083 19.6494C31.8757 19.9568 31.1946 20.3824 30.5384 20.8924C28.905 20.7121 27.2732 21.0225 25.782 21.682C23.8927 21.2222 22.3378 21.1539 21.5217 21.2737C22.2086 19.0672 23.2379 17.7653 24.0578 16.9817C25.1514 15.9367 25.9054 15.7823 26.2718 14.7208C26.7032 13.4712 26.0378 12.5858 26.7827 11.4551C27.1342 10.9213 27.4685 10.8576 27.6342 10.2828C27.7881 9.74871 27.7532 8.94316 27.2084 8.44062C26.8353 8.09645 26.2711 7.93843 25.7608 8.02196C24.7458 8.18779 24.4345 9.22812 23.0414 11.1813C22.8607 11.4348 22.0468 12.6151 20.9266 13.7605C19.5672 15.1504 18.3442 15.8545 14.9183 19.2631C13.4793 20.6946 11.9289 22.3972 12.0025 24.4782C12.0725 26.4523 13.602 28.012 15.1609 29.1151C16.0998 29.7797 17.3063 30.4963 18.6464 31.1498C18.5877 31.4097 18.5328 31.6705 18.4855 31.9324C17.8648 35.3724 17.8858 39.3086 19.3617 42.5426C20.7417 45.5662 23.0917 47.3023 24.7098 48.2452C23.9782 50.8465 22.9946 54.7272 24.3045 55.5562C25.528 56.331 28.9474 55.5145 30.3509 55.4537C31.1823 55.4176 33.1097 55.8184 35.8904 55.9736C36.8217 56.0254 37.8646 56.0646 38.3022 55.4402C38.7511 54.7991 38.2937 53.8409 38.2718 53.7964C37.8911 53.0258 37.0675 52.5903 35.7022 52.2398C34.4131 51.9085 32.1936 51.5383 29.1503 51.988C29.5545 51.3181 29.9086 50.6628 30.2185 50.0286C31.9324 50.1627 33.9095 50.0456 36.5752 49.8904C37.7473 49.8221 38.6809 49.7124 39.4394 49.5741C39.3219 49.4961 39.2037 49.4023 39.0911 49.2832C38.7201 48.8874 38.6188 48.4574 38.5858 48.272C38.5517 48.0785 38.6835 47.8944 38.8803 47.8608C39.0771 47.8272 39.2643 47.9569 39.2985 48.1504C39.3191 48.2692 39.3873 48.5512 39.6224 48.8006C39.9296 49.1309 40.338 49.1924 40.4425 49.2027C40.5187 49.2109 40.5822 49.2466 40.636 49.2926C41.7705 48.9469 42.2865 48.5076 42.617 48.0678C43.3421 48.216 44.0671 48.3643 44.7923 48.5125C44.9878 48.5525 45.1793 48.429 45.2199 48.2367C45.2606 48.0444 45.135 47.8561 44.9395 47.8161C44.2897 47.6833 43.64 47.5505 42.9903 47.4176C43.0294 47.329 43.0714 47.2411 43.1025 47.1508C43.8371 47.1932 44.5716 47.2357 45.3062 47.2781C45.5056 47.2896 45.6768 47.14 45.6885 46.9439C45.7002 46.7478 45.548 46.5796 45.3487 46.5681C44.6553 46.528 43.9619 46.488 43.2685 46.4479C43.3706 45.7874 43.3385 45.1062 43.3024 44.4476C43.2745 43.9405 43.2031 42.6409 42.6031 41.2927C42.8334 40.4217 43.1042 39.7896 43.3451 39.3395C43.4263 39.1878 43.6545 38.5963 44.1115 37.4134C44.31 36.8991 44.4032 36.6449 44.2817 36.4507C44.0341 36.0551 43.0876 36.2128 42.4936 36.325C42.3317 36.3556 42.1537 36.3916 41.9674 36.4307C41.7434 36.4777 41.4993 36.5326 41.2403 36.594C41.2456 36.4523 41.2501 36.3104 41.2501 36.1686C41.2501 35.8267 41.2349 35.4849 41.2045 35.1444V35.1445C41.1986 35.0761 41.1852 35.0028 41.1669 34.9477C41.1568 34.9154 41.1457 34.8935 41.1367 34.8782C41.1192 34.8835 41.0955 34.892 41.0632 34.9052L41.0624 34.9055C39.4738 35.5439 38.0387 36.5496 36.894 37.8075C36.4762 37.897 36.1204 37.9963 35.8074 37.9795C35.625 37.9698 35.4554 37.9235 35.2981 37.8045C34.7288 37.3735 34.7299 36.5049 34.7302 36.1854C34.7323 34.484 35.9769 33.7296 36.8093 32.1753C37.0548 31.7169 37.2275 31.252 37.3497 30.7973C38.4706 30.0609 39.4269 29.0462 40.1226 27.9038C39.9026 27.6889 39.6842 27.4855 39.4645 27.3102ZM35.758 46.9196C35.0195 46.9297 34.2807 46.9397 33.542 46.9498C33.4422 46.9512 33.3601 46.8727 33.3587 46.7745C33.3573 46.6763 33.4371 46.5956 33.537 46.5942C34.2757 46.5842 35.0145 46.5741 35.753 46.564C35.8528 46.5626 35.9349 46.6411 35.9363 46.7393C35.9377 46.8375 35.8578 46.9182 35.758 46.9196ZM41.144 44.8388C40.7808 45.1918 40.287 45.3815 39.7857 45.3825C39.6498 45.3825 39.513 45.3682 39.3783 45.3384L39.3781 45.3383C38.7467 45.1953 38.2233 44.7403 38.0011 44.1419C37.9335 43.9571 38.0309 43.7534 38.2188 43.6868C38.4068 43.6203 38.614 43.7161 38.6816 43.9009C38.8105 44.2611 39.158 44.5631 39.5372 44.6445C39.6179 44.6624 39.7014 44.6712 39.7857 44.6712C40.0977 44.6722 40.419 44.5463 40.6343 44.3342C40.776 44.1958 41.005 44.1965 41.1458 44.3359C41.2865 44.4752 41.2857 44.7004 41.144 44.8388ZM36.0421 45.5841C36.1414 45.5953 36.2125 45.6835 36.2011 45.7811C36.1896 45.8787 36.0999 45.9486 36.0007 45.9373C35.2303 45.8499 34.4665 45.708 33.7169 45.5142C33.6203 45.4892 33.5626 45.392 33.588 45.297C33.6134 45.202 33.7123 45.1453 33.8089 45.1702C34.5419 45.3598 35.289 45.4986 36.0421 45.5841Z" fill="#6C9EFC"/>
</svg>
