<svg width="64" height="64" viewBox="0 0 64 64" fill="none" xmlns="http://www.w3.org/2000/svg">
<path d="M57.8907 20.1714C57.8534 19.8266 57.7791 19.4371 57.4935 19.2578C57.114 19.02 56.6388 19.3031 56.2825 19.5773C56.1854 19.6519 56.0883 19.7266 55.9913 19.8012C55.8389 19.5362 55.6317 19.2239 55.3478 18.7974C55.0718 18.3824 54.9228 18.229 54.724 18.195C54.2876 18.1204 53.9817 18.6178 53.8028 19.0385C53.3925 20.0037 52.9979 20.8117 52.7156 21.4672C51.9222 21.2101 51.142 21.1127 50.4806 21.0319C50.0682 20.9814 46.6638 20.6084 44.4986 22.2035C44.4956 22.1997 44.4947 22.1949 44.4915 22.1913C44.0412 21.6844 43.5906 21.1774 43.1404 20.6705C43.0064 20.5196 42.7801 20.5102 42.635 20.6497C42.4899 20.7891 42.4809 21.0244 42.615 21.1754C43.0608 21.6773 43.5069 22.1793 43.9526 22.681C43.8858 22.7497 43.8211 22.8212 43.7585 22.8953C43.5314 22.7878 43.2997 22.681 43.0585 22.576L43.0584 22.5759C42.5684 22.3628 42.094 22.1753 41.6394 22.0102C41.453 21.9425 41.249 22.0448 41.1839 22.2388C41.1188 22.4328 41.2171 22.6449 41.4036 22.7127C41.8453 22.8731 42.3063 23.0552 42.7823 23.2623H42.7822C42.9623 23.3407 43.1379 23.4201 43.3099 23.4999C43.0837 23.8563 42.8365 24.3505 42.7219 24.971C42.5199 26.0662 42.9527 26.347 42.7998 27.17C42.7687 27.3376 42.7188 27.496 42.6524 27.647C42.6851 27.7082 42.7072 27.776 42.702 27.8511C42.6876 28.056 42.5163 28.21 42.3193 28.1951C42.3175 28.1949 42.3158 28.1948 42.314 28.1947C42.2582 28.2646 42.1988 28.3332 42.1352 28.4003L42.213 28.187C37.4818 27.8283 33.953 27.5561 31.994 27.3033C31.9048 27.2917 31.7252 27.275 31.4847 27.2751C31.0349 27.2749 30.37 27.3332 29.6502 27.5809C29.2887 27.705 28.9401 27.8969 28.6548 28.1426C28.3688 28.3887 28.1471 28.6857 28.0203 29.0252V29.0253C27.9527 29.2061 27.918 29.4073 27.9181 29.6095C27.9179 29.8721 27.9768 30.1349 28.0856 30.3544C28.1948 30.5745 28.3497 30.7496 28.5463 30.8613C28.7482 30.975 28.9514 31.0199 29.1816 31.0206C29.5395 31.0222 29.9586 30.8981 30.4073 30.7394C30.8567 30.5825 31.3334 30.3941 31.8365 30.3067C32.0208 30.2749 32.2008 30.2597 32.3784 30.2597C32.8468 30.2598 33.2913 30.3645 33.7765 30.5245C34.2626 30.685 34.7952 30.9018 35.4614 31.1471C36.6812 31.5966 38.3951 32.3599 40.2968 33.6804C40.4611 33.7945 40.5053 34.0255 40.3957 34.1964C40.286 34.3673 40.0639 34.4133 39.8996 34.2993C38.0569 33.0198 36.4006 32.2826 35.2226 31.8484C34.5451 31.5987 34.012 31.3825 33.5603 31.2337C33.4166 31.1863 33.2837 31.1485 33.1548 31.1153C33.2862 31.3037 33.4142 31.5107 33.5308 31.7432C33.9646 32.6083 34.0937 33.4799 34.0935 34.2125C34.0934 35.0098 33.9418 35.6496 33.8567 35.964C33.803 36.1617 33.6054 36.2767 33.4153 36.2209C33.2252 36.165 33.1146 35.9595 33.1683 35.7618C33.2439 35.4836 33.3783 34.9122 33.3782 34.2125C33.3781 33.569 33.2655 32.8228 32.8966 32.0873C32.6801 31.6555 32.4189 31.3148 32.1726 31.0519C32.1647 31.0434 32.1618 31.0323 32.1548 31.0232C32.0878 31.0293 32.0229 31.0287 31.9533 31.0407C31.5463 31.1099 31.0992 31.281 30.636 31.4444C30.172 31.6059 29.6896 31.763 29.1816 31.7646C28.8574 31.7653 28.5208 31.6949 28.2039 31.5145C27.8667 31.3233 27.6142 31.0283 27.4495 30.6946C27.2845 30.3601 27.2031 29.9852 27.2028 29.6095C27.2029 29.3201 27.2515 29.0293 27.3536 28.7559V28.7558C27.3536 28.7558 27.3536 28.7558 27.3536 28.7559C27.5318 28.2786 27.8356 27.8816 28.199 27.5692C28.2249 27.5469 28.2533 27.5282 28.2798 27.5067C26.6802 26.7473 25.0171 26.1017 23.4585 25.2531C23.1388 25.079 22.4703 24.641 21.6667 23.9927C20.5322 23.0775 19.9651 22.6197 19.5495 21.916C19.1885 21.3045 18.9598 20.0734 18.5172 17.6358C18.4117 17.0544 18.3648 16.496 17.9611 15.9485C17.8549 15.8046 17.1902 14.9036 16.2605 15.0085C15.4592 15.0987 15.0083 15.8749 14.9732 15.9376C14.4998 16.7809 15.0179 17.4887 15.1589 19.1513C15.3476 21.3768 14.8827 21.5701 15.2081 23.48C15.3593 24.3676 15.5414 25.3761 16.2225 26.4008C16.6327 27.0183 16.8387 27.1491 17.375 27.8475C17.9183 28.555 18.2311 29.4199 18.5197 30.2743C19.1823 32.2359 19.7631 34.2273 20.2596 36.2413C20.4925 37.1861 20.7102 38.1421 21.0385 39.0529C21.5479 42.7467 24.0393 45.2675 25.1406 46.2819C21.7587 46.2671 17.6677 46.0833 15.1267 45.3896C13.5629 44.9631 12.6382 44.2776 11.8573 43.5702C10.92 42.7205 10.2254 41.5074 10.2195 40.2141C10.2179 39.8627 10.2654 39.5016 10.1656 39.1661C9.88055 38.2057 8.48352 38.0537 7.76811 38.7292C7.0527 39.4047 6.9172 40.5301 7.04043 41.527C7.44426 44.7903 10.0921 47.3692 13.0448 48.5497C15.9973 49.7302 19.2402 49.7727 22.4033 49.8001C25.9707 49.8308 29.5381 49.8619 33.1056 49.8929C34.9344 50.1023 36.383 49.9507 36.9645 49.8892C42.8019 49.2737 46.5445 45.5439 48.4864 43.6091C50.381 41.7213 51.4266 39.9955 53.5179 36.5439C56.1548 32.1918 56.6936 30.0326 56.7928 28.7598L56.8202 28.7942C57.8353 26.065 58.2062 23.0793 57.8907 20.1714ZM48.7925 30.7883C48.6569 30.8571 48.4934 30.7985 48.4273 30.6574C48.0591 29.8721 47.691 29.0866 47.3229 28.3011C47.2568 28.16 47.3132 27.9899 47.4488 27.9212C47.5844 27.8524 47.7479 27.9111 47.814 28.0521C48.1821 28.8376 48.5502 29.623 48.9183 30.4084C48.9844 30.5495 48.9281 30.7195 48.7925 30.7883ZM50.1108 29.3393C50.0163 29.4615 49.8443 29.4809 49.7268 29.3826C49.0885 28.8484 48.5159 28.23 48.0269 27.5466C47.9368 27.4207 47.9619 27.2427 48.0829 27.1491C48.2039 27.0554 48.375 27.0814 48.4651 27.2073C48.9264 27.852 49.467 28.4359 50.0692 28.9398C50.1868 29.0382 50.2054 29.217 50.1108 29.3393ZM50.3766 25.665C50.104 25.7838 49.8126 25.841 49.5222 25.8411C49.1136 25.8408 48.7051 25.7281 48.3506 25.5017C47.7462 25.1121 47.3496 24.4319 47.2967 23.6946C47.2827 23.4896 47.431 23.3116 47.628 23.297C47.8251 23.2824 47.9962 23.4367 48.0102 23.6416C48.0413 24.1291 48.3239 24.6139 48.7253 24.868C48.9589 25.0177 49.2409 25.0973 49.5222 25.097C49.722 25.0971 49.9204 25.0573 50.1002 24.9788C50.2824 24.8994 50.4919 24.9887 50.5683 25.1782C50.6446 25.3677 50.5588 25.5856 50.3766 25.665Z" fill="#6C9EFC"/>
</svg>
