<svg width="64" height="64" viewBox="0 0 64 64" fill="none" xmlns="http://www.w3.org/2000/svg">
<path d="M46.7855 7.49284C44.5595 5.79795 41.2511 5.46195 38.8571 6.92177C37.7644 7.58808 36.8309 8.83946 37.2216 10.039C37.3709 10.4972 37.7666 10.9212 38.2584 10.9329C38.6612 10.9424 39.0109 10.6858 39.3458 10.4671C40.5683 9.66875 42.2815 9.57282 43.354 9.86147C43.4622 9.89068 45.4209 10.4509 46.0641 12.2301C46.5235 13.5003 46.0468 14.657 45.7399 15.4011C45.3028 16.4608 44.6734 17.1189 43.8749 17.9377C42.5128 19.3344 41.907 19.4375 41.0364 20.316C40.5579 20.7989 40.0339 21.4826 39.6123 22.4678C39.2301 22.1914 38.8285 21.9247 38.3995 21.6868C37.2142 20.2156 35.3493 19.07 32.9807 18.4678C31.2203 18.0201 29.3594 17.8278 27.7556 16.9886C25.8418 15.9875 24.4806 14.1575 22.5433 13.2008C21.6386 12.754 20.5793 12.4728 19.9674 11.6829C19.0413 10.4875 19.392 8.43449 18.0451 7.71702C17.1001 7.21388 15.8449 7.8247 15.3539 8.76082C14.8628 9.69693 14.9572 10.8214 15.1911 11.8483C15.7756 14.4126 17.1742 16.7938 19.1449 18.5803C19.8158 19.1886 20.5625 19.7425 21.0517 20.4985C21.7045 21.5074 21.8201 22.7465 22.0429 23.9203C22.5433 26.5547 23.7289 29.2438 25.4636 31.4128C24.88 34.2089 25.4044 37.5634 25.6128 40.3417C25.9014 44.185 26.4392 48.0107 27.2225 51.7876C27.4698 52.9802 27.7536 54.1971 28.4285 55.2196C29.1035 56.2425 30.2545 57.0479 31.4984 56.9978C32.7424 56.9477 33.9284 55.8059 33.7117 54.6074C33.59 53.9357 33.0974 53.3978 32.7245 52.8209C32.1997 52.0089 31.9189 51.1047 31.8196 50.1657C31.6077 49.1959 31.518 48.321 31.518 47.5525C31.5179 46.5473 31.6587 45.7146 31.8291 45.0557C32.0287 44.2832 32.286 43.6889 32.6477 42.9092C33.01 42.128 33.482 41.1488 34.1355 39.5674C34.6468 38.3309 35.0285 37.3062 35.2692 36.6407C35.3358 36.4564 35.5427 36.3598 35.7312 36.4249C35.9198 36.4901 36.0186 36.6923 35.952 36.8766C35.7089 37.5489 35.3233 38.5838 34.807 39.8326C34.1474 41.4289 33.6662 42.4276 33.3073 43.2015C32.9479 43.9769 32.7162 44.5151 32.5312 45.2293C32.4749 45.447 32.4251 45.6925 32.3804 45.9512C32.5838 45.8829 32.7972 45.849 33.0088 45.8489C33.5534 45.8497 34.1082 46.0627 34.4724 46.5053C34.5972 46.6581 34.5716 46.8808 34.4153 47.0028C34.259 47.1247 34.0312 47.0997 33.9064 46.9469C33.7085 46.7012 33.3614 46.556 33.0088 46.5569C32.7291 46.5567 32.4613 46.6467 32.2718 46.8135C32.254 47.048 32.2423 47.2923 32.2422 47.5525C32.2423 48.246 32.3185 49.0358 32.5042 49.9176L32.5373 49.7775C32.9446 50.1276 33.4236 50.436 33.9917 50.6662C34.8379 51.0088 35.6749 51.1032 36.4405 51.0696C36.8578 51.9041 37.3705 52.7497 38.2305 53.1206C38.5703 53.2672 38.9787 53.3232 39.3062 53.152C39.3723 53.1174 39.4313 53.0731 39.4874 53.0251C38.019 49.3483 37.6525 45.0504 37.5372 42.9998C37.5264 42.8045 37.6795 42.6377 37.8792 42.6272C38.0789 42.6166 38.2496 42.7663 38.2604 42.9615C38.3737 45.0378 38.7632 49.4817 40.2865 53.0812C40.4946 53.5738 40.743 54.0941 41.0825 54.5635C41.4226 55.0334 41.8493 55.4515 42.4254 55.757L42.4256 55.7571C42.5776 55.8397 43.3191 56.2111 44.188 56.2089C44.4916 56.2089 44.8099 56.1652 45.1307 56.0525H45.1305C45.2379 56.0148 45.4287 55.9471 45.632 55.8403C45.8349 55.7344 46.0427 55.5895 46.1784 55.4213C46.2697 55.3086 46.3308 55.1898 46.3569 55.0526C46.366 55.0048 46.3701 54.9573 46.3701 54.9098C46.3707 54.7407 46.3149 54.568 46.2456 54.4283C46.1769 54.2885 46.0988 54.186 46.0719 54.1524L46.0717 54.1522C45.9357 53.9828 45.8114 53.8939 45.6656 53.8136C45.5205 53.7338 45.3472 53.6697 45.1473 53.5672H45.1471C45.1471 53.5672 45.1472 53.5672 45.1473 53.5672C44.8816 53.4303 44.6703 53.2357 44.5124 53.0148C44.3539 52.7937 44.2457 52.5474 44.1695 52.2939C44.0181 51.7865 43.9892 51.2446 43.9846 50.7628C43.9737 49.476 43.8474 46.8051 43.8474 43.2272C43.8474 42.1184 43.8595 40.9219 43.8909 39.6511C43.8958 39.4556 44.0618 39.301 44.2617 39.3058C44.4616 39.3105 44.6198 39.4727 44.6149 39.6682C44.5836 40.9327 44.5716 42.1235 44.5716 43.2272C44.5716 43.4711 44.5723 43.7098 44.5734 43.945C44.7513 43.5019 44.9232 43.0577 45.091 42.6183C45.7703 40.8405 46.6876 38.4387 46.5507 35.1664C46.4924 33.7626 46.2349 29.2362 42.7345 25.3704C42.6917 25.3231 42.6386 25.2652 42.5916 25.2135C42.7276 24.5734 42.933 24.0541 43.1451 23.6455C44.7529 20.5462 48.2459 20.3874 49.5699 16.8242C49.898 15.9415 49.9596 15.222 49.9843 14.8084C50.1491 12.0548 49.0115 9.18791 46.7855 7.49284ZM36.9575 45.7444C36.9028 45.8809 36.7452 45.9483 36.6056 45.8948C36.0934 45.6986 35.554 45.5679 35.0073 45.5076C34.8582 45.4912 34.751 45.3597 34.7679 45.214C34.7847 45.0683 34.9191 44.9636 35.0682 44.98C35.6622 45.0455 36.2473 45.1873 36.8037 45.4004C36.9434 45.4539 37.0122 45.6079 36.9575 45.7444ZM37.0901 44.4162C36.4953 44.4162 35.9009 44.4162 35.3061 44.4162C35.1561 44.4162 35.0345 44.2974 35.0345 44.1508C35.0345 44.0041 35.1561 43.8853 35.3061 43.8853C35.9009 43.8853 36.4953 43.8853 37.0901 43.8853C37.2401 43.8853 37.3617 44.0041 37.3617 44.1508C37.3617 44.2974 37.2401 44.4162 37.0901 44.4162Z" fill="#C33409"/>
</svg>
