<svg width="64" height="64" viewBox="0 0 64 64" fill="none" xmlns="http://www.w3.org/2000/svg">
<path d="M58.4598 38.0439C57.6596 35.8644 56.5907 33.7824 55.2851 31.8598C54.1498 30.1884 53.1288 28.9651 52.6339 28.3935C50.4106 25.8249 47.7355 23.5113 45.4512 21.727C44.0535 20.2089 42.5006 19.3784 42.0492 19.15C41.9422 19.096 41.8352 19.0484 41.7283 18.9988C41.6391 18.9375 41.5459 18.873 41.4643 18.8177L41.4505 18.8712C35.8353 16.4451 30.2378 19.6387 29.9407 19.8148C29.6798 19.9695 29.4329 20.1329 29.1922 20.3004C29.0857 19.961 28.9498 19.6027 28.7718 19.2332C27.4971 16.5889 25.1199 15.449 24.346 15.0779C21.282 13.6085 16.9325 13.4548 13.672 15.7952C11.2085 17.5635 10.262 20.1131 9.98299 20.8952C9.38021 22.5858 9.29808 24.1877 9.26745 24.8782C9.16139 27.2567 9.49333 27.7475 9.36879 29.8876C9.29772 31.1071 9.09141 32.4505 8.14799 33.2317C7.37752 33.8697 6.11212 34.1858 6.00588 35.1774C5.94932 35.7046 6.30772 36.2159 6.7798 36.462C7.25206 36.7077 7.81297 36.7279 8.3407 36.654C10.3245 36.3758 12.0346 34.7227 12.372 32.7576C12.5163 31.9168 12.4308 31.0564 12.3628 30.2062C12.2662 28.9996 11.9694 25.1521 13.45 22.0025C13.9728 20.8902 14.9063 18.9043 17.081 17.9865C19.2367 17.0768 22.078 17.4419 24.014 19.2597C25.4892 20.6448 25.9074 22.373 26.0075 23.5388C23.6565 27.0121 23.3523 30.99 23.2604 32.1976C23.202 32.9647 22.8472 38.7927 26.5653 43.7532C24.0978 44.5038 21.4889 44.7964 18.9169 44.5867C18.5919 44.56 18.2616 44.5243 17.9622 44.3955C16.7773 43.886 16.2705 42.0486 14.9824 42.1294C14.0185 42.19 13.5319 43.3859 13.6804 44.3356C13.808 45.1504 14.238 45.915 14.8695 46.4494C15.5899 47.0585 16.523 47.3508 17.4389 47.5843C22.7316 48.9349 28.2752 48.8173 33.7382 48.6867C35.6769 49.1164 37.608 49.0147 39.7109 48.9017C39.9426 48.8894 40.1631 48.8772 40.3784 48.8646C43.0445 49.0612 45.7388 48.8747 48.3508 48.3067C48.6078 48.2508 48.878 48.184 49.0672 48.0018C49.4498 47.6323 49.3029 46.9517 48.9168 46.5862C48.531 46.2203 47.99 46.0792 47.4817 45.9197C47.1532 45.8165 46.8309 45.6967 46.5114 45.5679C46.882 44.6059 46.8929 43.7857 46.8925 43.6662C46.8871 42.0948 46.0444 41.0555 44.8882 39.5941C44.6589 39.3043 44.4543 39.0505 44.253 38.8284C44.5891 38.4312 44.9256 38.0336 45.2617 37.6364C45.3938 37.4803 45.3737 37.2472 45.2169 37.1158C45.06 36.9843 44.8258 37.0043 44.6937 37.1604C44.3665 37.5471 44.039 37.9341 43.7117 38.3209C43.5762 38.22 43.4324 38.1381 43.2797 38.0697C43.4311 37.4581 43.6289 36.858 43.8755 36.2784C43.9554 36.0905 43.8672 35.8737 43.6784 35.7941C43.4895 35.7145 43.2716 35.8024 43.1917 35.9903C42.9313 36.6023 42.7223 37.2355 42.562 37.8807C41.5617 37.7782 40.5588 38.2204 40.4625 38.2644C39.7207 38.6022 39.4814 38.9778 38.9111 38.9388C38.257 38.8937 37.8125 38.3463 37.7428 38.2619C36.893 37.2324 37.1188 35.1096 38.2077 34.2753C39.1779 33.5319 40.0739 34.3929 42.3831 34.1089C42.7102 34.0689 43.3889 33.9848 44.1576 33.7445C45.5629 34.1042 46.8707 34.4839 48.1978 34.989C49.6597 35.5455 51.1433 36.1138 52.391 37.0545C53.0944 37.5846 53.7285 38.2543 54.015 39.0846C54.3496 40.0556 54.189 41.1782 54.6988 42.0706C55.3601 43.2278 57.1665 43.51 58.1523 42.61C58.7528 42.0619 59.0105 41.2154 58.9997 40.4046C58.9891 39.5934 58.7397 38.8057 58.4598 38.0439ZM42.6578 41.8299C42.8771 41.5049 43.1983 41.237 43.5997 41.1117C43.7954 41.0508 44.0036 41.1593 44.0648 41.354C44.126 41.5488 44.017 41.7561 43.8213 41.817C43.6047 41.8841 43.4131 42.0363 43.2741 42.242C43.1352 42.4467 43.0555 42.7007 43.0562 42.9393C43.0563 43.0997 43.0905 43.2519 43.1602 43.3872C43.2537 43.5688 43.1817 43.7915 42.9992 43.8846C42.8167 43.9777 42.593 43.906 42.4994 43.7244C42.371 43.4751 42.3136 43.2046 42.3136 42.9393C42.3143 42.5431 42.4384 42.1559 42.6578 41.8299ZM40.6369 44.1058C40.7847 44.1482 40.8699 44.3018 40.8272 44.4489C40.6045 45.2169 40.337 45.9725 40.0265 46.7102C39.967 46.8514 39.8039 46.9179 39.662 46.8587C39.5202 46.7996 39.4534 46.6372 39.5128 46.4961C39.815 45.7781 40.0754 45.0427 40.2922 44.2952C40.3348 44.1481 40.4891 44.0633 40.6369 44.1058ZM37.5554 45.4246C38.1402 44.7321 38.7247 44.0397 39.3096 43.3472C39.4085 43.23 39.5842 43.2149 39.7019 43.3134C39.8196 43.4118 39.8348 43.5866 39.7359 43.7038C39.1511 44.3962 38.5666 45.0887 37.9817 45.7812C37.8828 45.8983 37.7071 45.9135 37.5894 45.815C37.4717 45.7165 37.4565 45.5417 37.5554 45.4246Z" fill="#C33409"/>
</svg>
