<svg width="64" height="64" viewBox="0 0 64 64" fill="none" xmlns="http://www.w3.org/2000/svg">
<path d="M4.88314 26.1367C6.0169 28.1279 7.82411 28.9271 8.58316 29.2629C10.9311 30.3014 13.2151 30.0603 14.274 29.9487C15.0313 29.8687 15.3668 29.7615 16.9901 29.5621C16.2909 30.9818 15.9601 32.5887 16.0471 34.0886C16.1822 36.4136 17.2943 38.1557 18.2473 39.2922C18.5102 42.5501 19.1476 45.7773 20.1456 48.8896C20.5034 50.0065 20.9204 51.1317 21.6599 52.0415C22.6768 53.2922 24.2877 54.0362 25.8982 53.9986C26.6494 53.9811 27.4504 53.7691 27.9248 53.1863C28.3992 52.603 28.362 51.5866 27.7072 51.2181C27.0674 50.8581 26.5796 50.9658 26.0127 50.6293C24.8614 49.9466 25.1523 47.4506 25.2722 46.5016C25.3565 45.8355 25.5146 44.9539 25.825 43.9092C28.1603 44.4629 30.2947 44.4567 31.5471 44.4522C32.0373 44.4505 39.3311 44.3328 44.2034 40.4663C46.8353 39.9082 49.4132 39.0944 51.8829 38.026C52.5455 37.7394 53.2038 37.4338 53.901 37.247C54.1916 37.1689 54.5024 37.1124 54.7903 37.1998C54.9612 37.2515 55.1142 37.3512 55.284 37.406C55.5691 37.4978 55.8778 37.4572 56.1742 37.4146C56.8636 37.3151 57.5763 37.1998 58.1572 36.8155C58.7384 36.4311 59.1506 35.7 58.9476 35.0331C58.8145 34.5958 58.4544 34.272 58.1101 33.9716C57.9044 33.7923 57.693 33.6093 57.4384 33.5115C56.8652 33.291 56.2311 33.5449 55.6632 33.7782C53.1586 34.8081 50.5138 35.4928 47.8259 35.818C48.4641 34.508 48.839 33.3454 49.0162 32.7945C49.3192 31.8527 49.3916 31.2676 49.3003 30.5851C49.2953 30.5474 49.2857 30.5117 49.2793 30.4745C49.3295 30.4612 49.378 30.4397 49.4199 30.4034C49.9673 29.9285 50.6572 29.6124 51.3743 29.5082C51.5667 29.4801 51.6999 29.3013 51.6719 29.1087C51.6439 28.9161 51.4652 28.7828 51.2728 28.8108C50.469 28.9283 49.7048 29.2672 49.074 29.7781C49.0468 29.7142 49.0196 29.6503 48.9885 29.5882C49.0625 29.5633 49.1305 29.5185 49.1754 29.4472C49.533 28.8802 50.0335 28.4004 50.615 28.0676C50.7838 27.971 50.8423 27.7558 50.7458 27.5868C50.6493 27.4179 50.4342 27.3593 50.2654 27.456C49.6046 27.8345 49.041 28.3721 48.6244 29.0095C47.8986 28.0566 46.7157 27.3696 45.5764 26.8932C45.0961 26.6924 44.604 26.5097 44.1035 26.3629C43.7781 25.22 43.269 24.1294 42.5952 23.1507C42.4792 22.9821 42.3195 22.798 42.116 22.8179C41.9721 22.8322 41.8609 22.9463 41.7671 23.0562C41.4624 23.4125 41.2023 23.7974 40.9704 24.1994C40.9534 24.1378 40.9363 24.0769 40.9198 24.0102C40.8886 23.8827 40.7803 23.5682 40.5123 23.3155C40.3155 23.1298 40.0034 23.0376 39.7691 23.1725C39.5375 23.3058 39.4495 23.5885 39.415 23.7292C38.7205 26.5581 38.2975 28.2893 38.5034 29.1641C38.2825 29.3089 38.039 29.431 37.7824 29.5322C34.1981 25.7191 32.8697 23.8084 32.4866 22.815C32.4601 22.7462 32.1076 21.9372 31.4048 21.0538C30.9754 20.5139 30.4133 20.0509 29.7454 19.8806C29.0884 19.7132 28.2747 19.9186 27.9887 20.5337C27.8072 20.9239 27.8794 21.401 28.1059 21.7669C28.3321 22.1328 28.6941 22.398 29.0819 22.5836C29.3487 22.7113 29.6357 22.8085 29.8643 22.9962C29.8643 22.9962 30.1008 23.1966 30.2813 23.5089C30.512 23.908 31.0208 25.8289 31.6332 28.6224C30.918 28.0959 30.1005 27.4838 28.8608 26.9062C28.5721 26.7715 28.1778 26.5888 27.7116 26.3977C26.747 23.5082 26.1399 20.4991 25.9134 17.461C25.8621 16.7773 25.8346 16.0652 26.098 15.432C26.3551 14.813 26.8615 14.3387 27.2606 13.8004C27.6601 13.2619 27.964 12.5599 27.7319 11.9309C27.4889 11.2732 26.7085 10.9319 26.0124 11.0114C25.3162 11.0908 24.7019 11.5037 24.1828 11.9745C22.6805 13.3364 21.7658 15.2215 21.0201 17.1078C19.7963 20.203 18.9334 23.4402 18.446 26.733C17.2984 27.0957 15.8849 27.4215 14.3014 27.4833C12.4681 27.5548 10.5114 27.6311 8.82345 26.3772C8.45871 26.1064 7.45043 25.3571 6.99733 24.0204C6.8887 23.6997 6.624 22.9177 6.75704 21.9522C6.85673 21.2317 7.10906 20.9074 7.06265 20.0886C7.03824 19.6569 7.00455 19.1783 6.66113 18.9221C6.28538 18.6421 5.71197 18.7565 5.37577 18.9137C4.18494 19.471 4.06325 21.46 4.01822 22.1927C3.98212 22.7832 3.90409 24.4171 4.88314 26.1367ZM46.0413 30.3759C45.7119 30.5738 45.3313 30.6846 44.9433 30.6849C44.7327 30.685 44.5198 30.6517 44.3146 30.5799C44.1311 30.5157 44.0343 30.3147 44.0985 30.131C44.1627 29.9473 44.3635 29.8505 44.547 29.9147C44.6726 29.9587 44.8065 29.9803 44.9433 29.9803C45.195 29.9806 45.4568 29.9058 45.6784 29.772C45.9006 29.6383 46.0801 29.4486 46.1839 29.2269C46.2666 29.0508 46.4763 28.9751 46.6523 29.0579C46.8282 29.1407 46.9038 29.3505 46.8211 29.5267C46.6504 29.8896 46.3701 30.1778 46.0413 30.3759ZM43.5045 34.6094C44.0031 34.1487 44.5881 33.7835 45.2207 33.5374C45.3566 33.4845 45.5096 33.5519 45.5624 33.688C45.6152 33.824 45.5479 33.9772 45.412 34.03C44.8414 34.2519 44.3121 34.5824 43.8627 34.9978C43.7555 35.0968 43.5885 35.0901 43.4896 34.9828C43.3907 34.8756 43.3974 34.7084 43.5045 34.6094ZM43.0937 33.2965V33.2964C43.6305 32.9439 44.237 32.7004 44.8686 32.5841C45.012 32.5577 45.1497 32.6527 45.176 32.7962C45.2024 32.9398 45.1075 33.0775 44.9641 33.1039C44.4025 33.2072 43.8608 33.4247 43.3834 33.7383C43.2615 33.8184 43.0979 33.7844 43.0179 33.6624C42.9378 33.5404 42.9718 33.3765 43.0937 33.2965Z" fill="#C33409"/>
</svg>
