<svg width="64" height="64" viewBox="0 0 64 64" fill="none" xmlns="http://www.w3.org/2000/svg">
<path d="M54.7599 16.1018C54.4294 14.8861 53.8003 13.9209 53.5669 13.5683C53.1814 12.9861 52.8934 12.5509 52.3739 12.1206C52.1936 11.9712 50.7122 10.7834 48.7032 11.0348C48.4167 11.0708 46.4828 11.3126 46.2256 12.392C46.0989 12.9248 46.3923 13.612 46.8679 13.8396C47.2659 14.03 47.5542 13.786 48.1529 13.7493C49.421 13.6714 50.4202 14.6277 50.5386 14.7444C51.6136 15.8026 51.4824 17.4105 51.4564 17.7304C51.1765 21.1608 46.5873 23.6213 43.7334 24.5245C42.514 24.9105 41.3887 25.0806 40.2939 25.1874C37.4206 23.155 33.839 22.1859 30.7178 22.2544C25.6318 22.3658 22.0823 25.2214 19.2474 27.5021C14.8742 31.0204 12.6661 35.2165 11.5751 37.2899C10.7372 38.8821 10.2814 40.1585 9.89407 41.2423C9.45998 42.4569 9.13837 43.3659 8.96696 44.099C8.87637 44.2798 7.86182 46.3572 8.01589 48.3945C8.04154 48.7331 8.11079 49.1904 8.44843 49.4141C8.52538 49.4654 8.81593 49.6366 9.45366 49.4621C9.80632 49.3656 10.26 49.1631 10.7517 48.9085C11.015 48.5417 11.1956 48.2079 11.2341 48.134C12.5022 44.7948 13.7702 41.4557 15.0382 38.1161C15.1108 37.9248 15.327 37.8277 15.5211 37.8994C15.7152 37.971 15.8136 38.1842 15.7409 38.3755C14.4704 41.7217 13.1999 45.0675 11.9293 48.4134L11.9135 48.449C11.9031 48.4655 11.47 49.3322 10.8024 50.0114C10.5779 50.2378 10.3256 50.4459 10.0352 50.5904H10.0351C9.63375 50.7891 9.45048 50.8653 9.44134 50.8691L9.39352 50.8852C9.18974 50.9384 9.01011 50.9716 8.86659 51.0211C8.72179 51.0711 8.61753 51.1274 8.51892 51.2302L8.51862 51.2305C8.44919 51.3042 8.40591 51.3681 8.36482 51.4493C8.32417 51.5301 8.28731 51.631 8.24554 51.7645L8.24542 51.7648C8.20587 51.8893 8.13596 52.1174 8.13582 52.3926C8.13594 52.564 8.16285 52.7494 8.24057 52.939C8.39849 53.3237 8.69157 53.5399 8.8272 53.6346C9.2149 53.9072 9.67142 53.9998 10.1144 54C10.7724 54.0008 11.3641 53.7902 11.4997 53.74H11.4998C12.0555 53.5384 12.4262 53.2569 12.5723 53.1419C14.2929 51.795 15.2667 49.6662 15.3673 49.4264L15.3767 49.4045V49.4046C16.0605 47.7639 17.4957 45.3446 20.8058 41.8809C20.9479 41.7322 21.1854 41.7253 21.3362 41.8654C21.487 42.0055 21.4941 42.2397 21.3519 42.3884C18.0859 45.8064 16.7115 48.1487 16.0708 49.6858L16.0707 49.6859C16.0651 49.6991 15.811 50.3076 15.3083 51.1128C14.805 51.9178 14.0548 52.9214 13.0402 53.7203C13.0076 53.746 12.9619 53.7808 12.9097 53.8192C13.0386 53.8637 13.1807 53.8872 13.3383 53.8876C13.8282 53.8924 14.4155 53.6593 14.7196 53.4599L14.72 53.4597C14.8475 53.377 14.9304 53.3195 15.0973 53.1497C15.2621 52.9806 15.498 52.7024 15.8703 52.222C16.3024 51.6647 16.653 51.2107 16.9181 50.84C17.1834 50.47 17.3619 50.1809 17.4513 49.9726C17.454 49.9664 17.4543 49.9627 17.4568 49.9567C17.6982 49.8925 17.9648 49.8414 18.2634 49.8099C18.3589 49.7998 18.4549 49.79 18.5575 49.7844C19.3916 49.739 19.8149 49.8866 20.2172 49.9197C20.4041 50.6425 20.5909 51.3654 20.7778 52.0882C20.8289 52.2862 21.0332 52.4058 21.234 52.3553C21.4348 52.3049 21.5561 52.1035 21.5049 51.9055C21.3239 51.2051 21.1428 50.5047 20.9618 49.8043C20.9794 49.7974 20.996 49.7921 21.0142 49.7844C21.0872 49.7536 21.1577 49.7197 21.2258 49.6832C21.6458 50.3191 22.0657 50.9551 22.4858 51.5911C22.5989 51.7623 22.8314 51.8107 23.005 51.6992C23.1786 51.5877 23.2277 51.3585 23.1146 51.1873C22.6864 50.5389 22.2581 49.8904 21.8299 49.242C22.4412 48.6671 22.7494 47.9346 22.8244 47.7442C23.3392 46.4404 22.9305 45.423 23.7943 44.6846C23.9474 44.5538 24.0852 44.4786 24.2528 44.3952C24.4161 44.3139 26.845 43.1191 28.6433 42.9634C31.4241 42.7225 32.199 45.0101 35.1731 45.5769C35.5606 45.6508 35.951 45.6871 36.3412 45.6935C37.2032 45.8652 37.5835 45.434 40.1463 45.5014C42.0318 45.5509 43.1651 45.5928 44.4603 46.229C44.4603 46.229 46.3597 47.3284 47.2673 49.2584C47.4142 49.5712 47.5308 49.9824 47.2838 50.2259C47.0196 50.4864 46.5624 50.2136 46.2414 50.4445C45.7801 50.7768 45.8145 52.0449 46.4605 52.7028C47.2669 53.524 48.8755 53.2426 49.8233 52.6016C50.8449 51.9116 51.127 50.7859 51.2992 50.0553C51.7378 48.1919 51.2391 46.5954 51.046 46.0007C50.2029 43.4017 48.2188 38.5278 45.2993 32.3548C45.1422 31.747 44.9522 31.1765 44.7413 30.6601C44.3654 29.7386 43.8829 28.895 43.3179 28.1268C45.5635 27.7662 48.497 26.9174 51.1809 24.8783C53.2213 23.3281 53.9311 21.9913 54.1172 21.621C54.3455 21.1676 55.4894 18.7872 54.7599 16.1018Z" fill="#C33409"/>
</svg>
