<svg width="64" height="64" viewBox="0 0 64 64" fill="none" xmlns="http://www.w3.org/2000/svg">
<path d="M23.2074 46.1205C23.2074 46.3269 23.259 46.4302 23.3623 46.5334C23.4139 46.585 23.4655 46.6366 23.5171 46.6366C23.5687 46.6366 23.6719 46.6883 23.7752 46.6883C23.8784 46.6883 23.93 46.6883 23.9816 46.6883C24.2397 46.6366 24.4978 46.4302 24.8075 46.2753C24.9623 46.1721 25.1688 46.2237 25.272 46.327C25.3236 46.3786 25.4269 46.4818 25.6333 46.6366C25.8398 46.7399 26.0978 46.8431 26.3043 46.8431C26.3559 46.8431 26.4075 46.8431 26.4592 46.8431C26.7172 46.7915 26.9237 46.6366 27.1301 46.4302C27.3366 46.2237 27.4398 46.0173 27.4915 45.914C27.5947 45.8108 27.5947 45.7076 27.6979 45.5527C27.7495 45.4495 27.8528 45.2947 28.0076 45.1398C28.2141 44.8817 28.4721 44.6753 28.9883 44.4172C29.556 44.1591 30.1238 43.9527 30.6916 43.8494C30.6916 43.8494 30.6916 43.8494 30.7432 43.8494C30.64 43.7978 30.5367 43.7462 30.3819 43.6946C29.298 43.2817 28.3689 42.972 27.6463 42.8688C27.4398 42.8171 27.1818 42.8171 26.9237 42.8171C26.1495 42.8171 25.272 43.0236 24.601 43.3333C23.8784 43.643 23.3106 44.1075 22.9493 44.6753C22.9493 44.6753 22.7429 44.985 22.6396 45.243C22.6913 45.1914 22.7945 45.1914 22.8461 45.1398C23.001 45.0882 23.2074 45.0882 23.3106 45.243C23.4139 45.3463 23.4655 45.5527 23.3623 45.7076C23.259 45.7592 23.2074 45.9656 23.2074 46.1205Z" fill="#C33409"/>
<path d="M28.6794 52.108C29.5053 52.2628 30.5376 52.4177 31.7247 52.4177C32.9119 52.4177 33.9442 52.2628 34.77 52.0564C33.7377 51.5402 32.757 50.9724 31.7247 50.4563C30.6924 51.0757 29.6601 51.6434 28.6794 52.108Z" fill="#C33409"/>
<path d="M54.125 31.72C53.9186 30.1715 51.5959 30.8941 52.1637 32.2361C51.5959 32.1329 51.2346 32.4426 51.0798 32.8555C50.9249 33.32 51.1314 33.7845 51.5959 33.991C50.4088 34.0426 48.499 33.991 46.5892 32.9587C43.0278 31.1006 41.6342 27.1262 41.1697 25.5778C41.8923 25.4745 42.6665 25.4229 43.3891 25.3197C43.5956 25.3197 43.7504 25.1132 43.7504 24.9068C43.7504 24.7003 43.544 24.5455 43.3375 24.5455C42.5633 24.6487 41.7891 24.7519 41.0148 24.8036C40.9632 24.5455 40.9116 24.339 40.86 24.0809C41.531 23.9261 42.202 23.8229 42.873 23.7196C43.0794 23.7196 43.2343 23.5132 43.2343 23.3067C43.2343 23.1003 43.0278 22.9454 42.8214 22.9454C42.0988 23.0486 41.4278 23.1519 40.7568 23.3067C40.2922 20.8292 40.1374 18.4033 38.7438 15.7193C37.505 13.2418 36.3179 14.1193 35.1824 16.3387C32.2919 15.6677 29.0402 14.9451 26.253 16.3903C25.0658 14.016 23.8271 12.8289 22.6399 15.6161C21.3496 18.713 21.2463 21.1389 20.7818 23.6164C20.0076 23.41 19.1817 23.2035 18.4075 22.997C18.201 22.9454 17.9946 23.0486 17.943 23.2551C17.8914 23.4616 17.9946 23.668 18.201 23.7196C19.0269 23.9261 19.8011 24.1326 20.6269 24.339C20.6269 24.3906 20.5753 24.4939 20.5753 24.5455C20.5237 24.6487 20.5237 24.8036 20.4721 24.9584C19.6979 24.8552 18.9237 24.7519 18.1494 24.6487C17.943 24.5971 17.7365 24.7519 17.6849 24.9584C17.6333 25.1649 17.7881 25.3713 17.9946 25.4229C18.7688 25.5262 19.4914 25.6294 20.2656 25.7326C19.7495 27.7972 18.7688 30.5844 16.3945 32.2361C14.6912 33.4232 12.8331 33.6813 11.6459 33.7329C12.5234 33.0619 11.5943 31.7716 10.6653 32.4426C11.1814 31.049 9.16844 30.2231 8.49744 31.5135C8.39421 31.4103 8.13614 31.1522 7.87806 31.1522C7.36192 31.2038 7.10384 31.9264 7.05223 32.1329V32.1845C6.79415 33.0103 7.56838 34.1459 7.72322 34.4039C7.92968 34.662 8.23937 35.0749 8.75552 35.4878C9.99428 36.4685 11.4395 36.5201 12.8331 36.6234C13.917 36.675 15.4655 36.6234 17.3236 36.1072C13.7105 39.8235 12.9879 45.0882 15.259 48.7013C16.6526 50.9207 19.2333 52.624 22.1238 52.9337C22.898 53.0369 23.569 52.9853 24.1884 52.9337C24.24 52.8821 24.24 52.8821 24.2916 52.8821C24.9626 52.6756 28.7821 51.3336 31.6209 49.3206C32.4984 48.7013 33.2726 48.1335 34.2017 47.2044C34.5114 46.8947 34.6662 46.6883 34.9243 46.4302C35.1307 46.1721 35.3888 45.9141 35.8017 45.5527C36.4211 44.985 36.8856 44.6237 37.247 44.3656C37.6083 44.1075 37.9179 43.9527 38.0728 43.9011C38.6922 43.5914 39.2599 43.4882 39.6212 43.3849C39.6212 43.3849 39.6729 43.3849 39.6729 43.3333C39.7245 43.3333 39.7245 43.2817 39.7761 43.2817L39.7245 43.2301C39.6212 43.1785 39.4664 43.1269 39.4148 43.0752C39.2599 43.0236 39.1051 42.972 39.0019 42.972C38.7954 42.972 38.5373 43.0236 38.4341 43.0752C38.3309 43.1269 38.176 43.0752 38.0728 43.0236C37.9179 42.9204 37.7631 42.7655 37.505 42.6623C37.505 42.6623 37.4534 42.6623 37.4018 42.6107C37.2986 42.5591 37.1953 42.5591 37.0405 42.5075C36.7308 42.4042 36.3179 42.3526 35.8533 42.3526C35.3888 42.3526 34.7694 42.4559 34.0984 42.7655C33.4274 43.0236 32.7565 43.4365 32.0338 44.0559C31.9822 44.0559 31.9822 44.1075 31.9306 44.1075C31.9306 44.1075 31.9306 44.1075 31.879 44.1075C31.879 44.1075 31.879 44.1075 31.8274 44.1075C31.6725 44.1591 31.2596 44.2108 30.7435 44.314C30.2273 44.4172 29.7112 44.6237 29.2466 44.8301C28.8337 45.0366 28.6789 45.1914 28.524 45.3463C28.4208 45.4495 28.3692 45.5527 28.3176 45.6044C28.266 45.7076 28.2143 45.8108 28.1111 46.0173C28.0595 46.1205 27.9047 46.3786 27.6466 46.6367C27.3885 46.8947 27.0272 47.1528 26.5627 47.256C26.4594 47.256 26.3562 47.3077 26.253 47.3077C25.7884 47.3077 25.4271 47.1528 25.1691 46.9464C25.0658 46.8947 24.9626 46.7915 24.911 46.7399C24.7045 46.8947 24.4465 46.998 24.1368 47.1012C24.0335 47.1528 23.9303 47.1528 23.7238 47.1528C23.569 47.1528 23.4142 47.1528 23.2593 47.1012C23.1045 47.0496 22.898 46.9464 22.7432 46.7915C22.4851 46.5334 22.3819 46.1721 22.3819 45.8624C22.3819 45.8108 22.3819 45.7592 22.3819 45.7076C22.3819 45.7076 22.3819 45.7076 22.3302 45.7076C22.2786 45.7076 22.1754 45.7076 22.1238 45.656C22.0722 45.656 21.9689 45.6044 21.9173 45.5011C21.8657 45.4495 21.8141 45.3463 21.7625 45.2947C21.7625 45.1914 21.7109 45.1398 21.7109 45.0882C21.7109 44.9334 21.7625 44.7785 21.8141 44.6753C21.8657 44.5205 21.9173 44.4172 21.9689 44.314C22.0722 44.1075 22.1754 43.9011 22.227 43.9011C22.6399 43.2301 23.3109 42.7139 24.0851 42.301C23.8787 42.1978 23.6206 42.0945 23.3625 41.9913C23.1561 41.9397 23.0529 41.7332 23.1045 41.5268C23.1561 41.3203 23.3625 41.2171 23.569 41.2687C24.1884 41.4752 24.6529 41.7332 24.9626 41.9397C25.582 41.7849 26.2014 41.6816 26.8207 41.6816C27.0788 41.6816 27.3885 41.6816 27.6466 41.7332C28.524 41.8365 29.4531 42.1978 30.537 42.6107C30.9499 42.7655 31.2596 42.9204 31.3629 42.972C31.5177 43.0236 31.6209 43.1268 31.7242 43.1785C32.3951 42.6623 33.1178 42.2494 33.7371 41.9397C34.4597 41.63 35.1824 41.4752 35.8017 41.4752C36.9373 41.4752 37.7631 41.8881 37.8147 41.8881C38.0212 41.9913 38.2276 42.0945 38.3825 42.1978C38.5373 42.1462 38.7438 42.0946 39.0019 42.0946C39.2083 42.0946 39.4664 42.1462 39.7245 42.1978C39.7761 42.1978 39.8793 42.2494 40.0342 42.3526C40.189 42.4042 40.3438 42.5075 40.4471 42.6623C40.4987 42.7139 40.4987 42.7655 40.5503 42.8172C40.9632 42.7139 41.3245 42.6623 41.7374 42.6623C41.9955 42.6623 42.2536 42.6623 42.5117 42.7139C42.7181 42.7655 42.873 42.972 42.8214 43.1785C42.7697 43.3849 42.5633 43.5398 42.3568 43.4882C42.1504 43.4365 41.9439 43.4365 41.6858 43.4365C41.1181 43.4365 40.5503 43.5914 40.0858 43.7978C40.0342 43.7978 40.0342 43.8495 39.9825 43.8495C39.9309 43.9011 39.8277 43.9011 39.7761 43.9527C39.6729 44.0043 39.5696 44.0043 39.4664 44.0043C39.1567 44.0559 38.7954 44.2108 38.3309 44.4172C38.176 44.4688 37.9696 44.6237 37.6083 44.8301C37.247 45.0366 36.834 45.3979 36.2147 45.9657C35.8533 46.327 35.5953 46.585 35.3888 46.7915C35.1824 47.0496 34.9759 47.256 34.6662 47.5657C33.7888 48.4432 33.0145 49.0109 32.2403 49.5787C33.5307 50.2497 34.8211 50.9723 36.163 51.6433C36.2147 51.6949 36.2663 51.7465 36.3179 51.7982C37.6083 52.4175 40.2922 53.295 43.0278 52.1078C45.0924 51.2304 46.1247 49.6303 46.4344 49.1142C48.5506 45.7076 47.7764 40.5977 44.6795 36.0556C47.4151 37.2944 51.3894 37.7073 54.0734 36.1072C55.8283 35.4878 57.3768 30.4812 54.125 31.72ZM27.0788 20.5711C26.5627 21.1905 25.7884 21.5518 24.9626 21.5518C24.6529 21.5518 24.2916 21.5002 23.9819 21.3454C23.7755 21.2421 23.6722 21.0357 23.7755 20.8292C23.8787 20.6227 24.0851 20.5195 24.2916 20.6227C24.4981 20.726 24.7561 20.7776 24.9626 20.7776C25.5304 20.7776 26.0981 20.5195 26.4594 20.1066C26.6143 19.9518 26.8207 19.9001 27.0272 20.055C27.182 20.1582 27.2337 20.3647 27.0788 20.5711ZM33.3242 24.9068C33.2726 24.9584 33.1694 25.1132 32.9113 25.3197C32.6532 25.4745 32.2919 25.681 31.8274 25.681C31.7758 25.681 31.7758 25.681 31.7242 25.681C31.3112 25.681 30.9499 25.4745 30.7435 25.3197C30.6402 25.2681 30.5886 25.1649 30.537 25.1132C30.4338 25.2165 30.2789 25.3197 30.0725 25.4229C29.9176 25.5262 29.6079 25.681 29.195 25.681C29.1434 25.681 29.1434 25.681 29.0918 25.681C28.5756 25.6294 28.2143 25.3713 28.0595 25.2165C27.9047 25.0616 27.9047 24.8036 28.0079 24.6487C28.1111 24.4939 28.4208 24.4939 28.5756 24.5971C28.6273 24.6487 28.8337 24.8036 29.1434 24.8552H29.195C29.4015 24.8552 29.5563 24.8036 29.7112 24.7003C29.9176 24.5971 30.0725 24.4422 30.1757 24.2874C30.1241 23.3067 30.0209 22.3777 29.9692 21.397C29.9692 21.397 29.9692 21.397 29.9692 21.3454C29.866 21.3454 29.7112 21.3454 29.6079 21.2937C29.4015 21.2421 29.2466 21.0357 29.2983 20.8292C29.3499 20.6227 29.5563 20.4679 29.7628 20.5195C29.866 20.5195 29.9692 20.5711 30.0725 20.5711C30.2789 20.5711 30.4854 20.5195 30.6919 20.4679C30.8983 20.3647 31.1048 20.4679 31.208 20.6744C31.3112 20.8808 31.208 21.0873 31.0015 21.1905C30.8983 21.2421 30.7951 21.2421 30.6919 21.2937V21.3454C30.7435 22.326 30.8467 23.2551 30.8983 24.2358C30.8983 24.2874 30.8983 24.339 30.8983 24.3906C30.8983 24.3906 30.8983 24.3906 30.8983 24.4422C30.8983 24.4939 31.0015 24.5455 31.1564 24.6487C31.3112 24.7519 31.5177 24.8552 31.7242 24.8552H31.7758C32.0338 24.8552 32.2403 24.7519 32.3951 24.6487C32.55 24.5455 32.6532 24.4422 32.6532 24.3906C32.8081 24.2358 33.0145 24.1842 33.221 24.339C33.4274 24.4939 33.4274 24.7519 33.3242 24.9068ZM36.8856 21.0873C36.5243 21.397 36.0598 21.5002 35.6469 21.5002C35.4404 21.5002 35.234 21.5002 35.0275 21.4486C34.4081 21.3454 33.7888 21.0873 33.2726 20.6744C33.1178 20.5711 33.0661 20.3131 33.1694 20.1066C33.2726 19.9518 33.5307 19.9001 33.7371 20.0034C34.1501 20.3131 34.6662 20.5195 35.1824 20.6227C35.3372 20.6744 35.492 20.6744 35.6469 20.6744C35.9566 20.6744 36.2147 20.6227 36.4211 20.4679C36.576 20.3131 36.834 20.3647 36.9889 20.5195C37.0405 20.6744 37.0405 20.9324 36.8856 21.0873Z" fill="#C33409"/>
</svg>
