<svg width="64" height="64" viewBox="0 0 64 64" fill="none" xmlns="http://www.w3.org/2000/svg">
<path d="M56.3949 48.5708C55.5677 47.7833 54.2435 48.0811 52.9872 48.1698C52.9872 48.1698 51.1763 48.2935 48.6258 47.6534C47.3353 47.6057 45.0831 47.3206 42.7731 45.9238C40.9341 44.8115 39.8064 43.4448 39.1963 42.5729C39.0774 42.4028 39.1213 42.1702 39.2944 42.0533C39.4675 41.9365 39.7043 41.9796 39.8233 42.1497C40.3952 42.9673 41.4524 44.2476 43.172 45.2874C45.1371 46.4766 47.0658 46.8055 48.309 46.8886C48.7596 45.9258 49.1474 44.8167 49.3671 43.5611C49.4506 43.0831 49.5034 42.6233 49.5327 42.185C51.9264 41.9428 53.6852 41.2097 53.8397 40.2157C53.8605 40.0818 53.8542 39.931 53.8041 39.7621C52.2276 38.6805 50.7841 37.9646 49.6846 37.4942C48.4997 36.9874 46.3579 36.0985 43.5052 35.8197C42.964 35.7668 42.9016 35.8022 42.2452 35.7442C42.2452 35.7442 39.9065 35.538 37.7777 34.879C36.0301 34.3382 34.2961 33.357 32.8913 32.4207C30.5023 30.4292 29.1429 29.3106 27.0266 28.598C24.2513 27.6633 20.1482 27.3973 16.6137 29.1386C15.5637 28.2652 13.6623 26.3522 13.0154 23.3361C12.9179 22.8807 12.5089 20.8152 13.2511 18.3114C14.0488 15.6206 16.3042 11.9913 19.6397 11.2508C20.4816 11.0639 21.7733 11.3084 22.4787 10.4761C22.5983 10.335 23.0051 9.80776 22.873 9.15914C22.7701 8.65248 22.3667 8.2104 21.9267 8.07447C21.6292 7.98252 21.2013 7.99547 20.6855 8.01098C20.6855 8.01098 20.6337 8.01171 20.5869 8.01463C17.4702 8.20657 14.9081 10.3212 14.9081 10.3212C12.5927 12.232 8.98849 16.8299 9.40544 22.9664C9.69796 27.2723 11.834 30.3559 13.1075 31.8675C10.2345 35.1957 9.18778 40.0956 10.9031 43.2509C12.2608 45.7476 15.2629 46.9981 14.9518 47.5418C14.7256 47.9377 13.1553 47.2437 10.1575 47.4374C9.48884 47.4805 8.99982 47.5516 8.45267 47.7512C8.29202 47.81 5.91435 48.7062 6.00238 50.0538C6.04065 50.6416 6.53914 51.1758 7.06771 51.4145C7.99709 51.8341 8.844 51.2616 10.0509 50.9959C11.4 50.6986 12.1003 51.0266 14.3125 51.4145C14.3125 51.4145 18.3211 52.1118 22.4171 51.9845C24.0686 51.9331 25.4902 51.7424 26.6056 51.5389C26.9426 51.3433 27.3717 51.0235 27.703 50.5199C28.092 49.9292 28.205 49.3072 28.2056 48.755C28.2055 48.2351 28.1037 47.7899 28.0398 47.5149C27.6584 45.8576 26.4592 44.8849 26.0461 44.5827C25.8779 44.4591 25.8436 44.2249 25.9695 44.0597C26.0954 43.8945 26.3338 43.8608 26.502 43.9844C26.9704 44.3303 28.3319 45.42 28.7815 47.3491C28.8464 47.63 28.9663 48.1418 28.9663 48.755C28.9668 49.406 28.8297 50.1858 28.3416 50.9261C28.2357 51.0865 28.1216 51.2274 28.005 51.3584C29.7711 51.6696 32.3486 51.8734 35.3013 51.205C36.1786 51.0065 36.972 50.7557 37.6848 50.4861C37.3456 50.2923 36.9976 50.0784 36.6433 49.8379C35.076 48.7742 33.9499 47.6002 33.175 46.6376C33.0447 46.4758 33.0726 46.2408 33.2374 46.1128C33.4022 45.9848 33.6414 46.0122 33.7717 46.1741C34.5109 47.0923 35.5837 48.2105 37.0757 49.2231C37.7906 49.7082 38.4819 50.088 39.1128 50.3863C39.1765 50.4164 39.2222 50.4648 39.2587 50.5187C39.5361 50.6401 39.8505 50.7675 40.2022 50.8912C42.169 51.5827 43.6229 51.5867 45.7424 51.6761C50.4903 51.8768 51.218 52.1972 53.6265 51.833C56.149 51.4521 56.7482 50.8898 56.9295 50.368C57.1379 49.768 56.8622 49.0156 56.3949 48.5708ZM44.0195 43.6197V43.6194V43.6195C44.0448 43.268 44.182 42.9903 44.3188 42.7992C44.4553 42.6078 44.596 42.4936 44.642 42.4574C44.8062 42.3287 45.0455 42.3552 45.1765 42.5165C45.3075 42.6779 45.2806 42.913 45.1163 43.0416C45.0999 43.0544 45.02 43.1185 44.9417 43.2281C44.8637 43.338 44.792 43.4841 44.7783 43.6725V43.6728L44.776 43.7347C44.776 43.902 44.8258 44.0421 44.8828 44.1489C44.9401 44.256 45.0006 44.3219 45.0151 44.3373C45.1573 44.4893 45.1471 44.7256 44.9924 44.8653C44.8377 45.0049 44.5971 44.9949 44.4549 44.8429C44.4179 44.8033 44.3088 44.6827 44.2093 44.4964C44.1095 44.31 44.0153 44.0499 44.0153 43.7347C44.0153 43.697 44.0166 43.6586 44.0195 43.6195C44.0195 43.6196 44.0195 43.6196 44.0195 43.6197Z" fill="#C33409"/>
</svg>
